# Blender v2.76 (sub 0) OBJ File: ''
# www.blender.org
mtllib goal.mtl
o Cube.001_Cube.003
v -2.227222 -0.190014 2.210778
v -2.227222 3.951202 2.210778
v -2.227222 -0.190014 1.830750
v -2.227222 3.951202 1.830750
v -1.847194 -0.190014 2.210778
v -1.847194 3.951202 2.210778
v -1.847194 -0.190014 1.830750
v -1.847194 3.951202 1.830750
v 1.826282 -0.190014 2.210778
v 1.826282 3.951202 2.210778
v 1.826282 -0.190014 1.830750
v 1.826282 3.951202 1.830750
v 2.206310 -0.190014 2.210778
v 2.206310 3.951202 2.210778
v 2.206310 -0.190014 1.830750
v 2.206310 3.951202 1.830750
v -1.828754 2.902200 2.009359
v 1.816863 2.902200 2.009359
v -1.828754 3.919474 2.009359
v 1.816863 3.919474 2.009359
v 1.816863 2.902200 1.975109
v -1.828754 2.902200 1.975109
v 1.816863 3.919474 1.975109
v -1.828754 3.919474 1.975109
v -2.227222 -0.190014 -1.786824
v -2.227222 3.951202 -1.786824
v -2.227222 -0.190014 -2.166852
v -2.227222 3.951202 -2.166852
v -1.847194 -0.190014 -1.786824
v -1.847194 3.951202 -1.786824
v -1.847194 -0.190014 -2.166852
v -1.847194 3.951202 -2.166852
v 1.826282 -0.190014 -1.786824
v 1.826282 3.951202 -1.786824
v 1.826282 -0.190014 -2.166852
v 1.826282 3.951202 -2.166852
v 2.206310 -0.190014 -1.786824
v 2.206310 3.951202 -1.786824
v 2.206310 -0.190014 -2.166852
v 2.206310 3.951202 -2.166852
v -1.828754 2.902200 -1.988243
v 1.816863 2.902200 -1.988243
v -1.828754 3.919474 -1.988243
v 1.816863 3.919474 -1.988243
v 1.816863 2.902200 -2.022493
v -1.828754 2.902200 -2.022493
v 1.816863 3.919474 -2.022492
v -1.828754 3.919474 -2.022493
v -1.768245 -0.190014 2.249458
v -1.768245 3.951202 2.249458
v -2.148273 -0.190014 2.249458
v -2.148273 3.951202 2.249458
v -1.768245 -0.190014 1.869430
v -1.768245 3.951202 1.869430
v -2.148273 -0.190014 1.869430
v -2.148273 3.951202 1.869430
v -1.768244 -0.190014 -1.804047
v -1.768244 3.951202 -1.804047
v -2.148272 -0.190014 -1.804047
v -2.148272 3.951202 -1.804047
v -1.768245 -0.190014 -2.184075
v -1.768245 3.951202 -2.184075
v -2.148273 -0.190014 -2.184075
v -2.148273 3.951202 -2.184075
v -1.969664 2.902200 1.850989
v -1.969664 2.902200 -1.794627
v -1.969664 3.919474 1.850989
v -1.969664 3.919474 -1.794627
v -2.003913 2.902200 -1.794627
v -2.003914 2.902200 1.850989
v -2.003913 3.919474 -1.794627
v -2.003914 3.919474 1.850989
v 2.155154 -0.190014 2.249458
v 2.155154 3.951202 2.249458
v 1.775126 -0.190014 2.249458
v 1.775126 3.951202 2.249458
v 2.155154 -0.190014 1.869430
v 2.155154 3.951202 1.869430
v 1.775126 -0.190014 1.869430
v 1.775126 3.951202 1.869430
v 2.155154 -0.190014 -1.804047
v 2.155154 3.951202 -1.804047
v 1.775127 -0.190014 -1.804047
v 1.775127 3.951202 -1.804047
v 2.155154 -0.190014 -2.184075
v 2.155154 3.951202 -2.184075
v 1.775126 -0.190014 -2.184075
v 1.775126 3.951202 -2.184075
v 1.953735 2.902200 1.850989
v 1.953735 2.902200 -1.794627
v 1.953735 3.919474 1.850989
v 1.953735 3.919474 -1.794627
v 1.919486 2.902200 -1.794627
v 1.919485 2.902200 1.850989
v 1.919486 3.919474 -1.794627
v 1.919485 3.919474 1.850989
vt 0.000000 0.097368
vt 0.000000 0.003707
vt 0.939974 0.003707
vt 0.939974 0.097368
vt 0.000000 0.092827
vt 0.000000 -0.000834
vt 0.939974 -0.000833
vt 0.939974 0.092827
vt 0.939974 0.000000
vt 0.939974 0.093661
vt 0.000000 0.093661
vt 0.000000 -0.000000
vt 0.000000 0.097066
vt 0.000000 0.003405
vt 0.939974 0.003406
vt 0.939974 0.097066
vt 0.852714 0.007510
vt 0.938973 0.007510
vt 0.938973 0.101171
vt 0.852714 0.101171
vt 0.847169 0.100337
vt 0.847169 0.006677
vt 0.933427 0.006677
vt 0.933428 0.100337
vt -0.001969 0.096535
vt -0.001969 0.002874
vt 0.938005 0.002874
vt 0.938005 0.096535
vt -0.001969 0.099639
vt -0.001969 0.005978
vt 0.938005 0.005978
vt 0.938005 0.099639
vt 0.000000 0.093962
vt 0.000000 0.000302
vt 0.939974 0.000302
vt 0.939974 0.093962
vt 0.000000 0.098201
vt 0.000000 0.004541
vt 0.939974 0.004541
vt 0.939974 0.098201
vt 0.929490 0.003573
vt 0.929490 0.097234
vt 0.843231 0.097234
vt 0.843231 0.003573
vt 0.850745 0.000771
vt 0.937004 0.000771
vt 0.937004 0.094432
vt 0.850745 0.094432
vt 0.025315 0.441965
vt 0.852797 0.441965
vt 0.852797 0.692679
vt 0.025315 0.692679
vt 0.026941 0.442937
vt 0.854151 0.444325
vt 0.846487 0.693480
vt 0.024388 0.692169
vn -1.000000 0.000000 0.000000
vn 0.000000 0.000000 -1.000000
vn 1.000000 0.000000 0.000000
vn 0.000000 0.000000 1.000000
vn 0.000000 -1.000000 0.000000
vn 0.000000 1.000000 0.000000
usemtl None
s off
f 2/1/1 4/2/1 3/3/1 1/4/1
f 4/5/2 8/6/2 7/7/2 3/8/2
f 8/9/3 6/10/3 5/11/3 7/12/3
f 6/13/4 2/14/4 1/15/4 5/16/4
f 1/17/5 3/18/5 7/19/5 5/20/5
f 6/21/6 8/22/6 4/23/6 2/24/6
f 10/25/1 12/26/1 11/27/1 9/28/1
f 12/29/2 16/30/2 15/31/2 11/32/2
f 16/33/3 14/34/3 13/35/3 15/36/3
f 14/37/4 10/38/4 9/39/4 13/40/4
f 9/41/5 11/42/5 15/43/5 13/44/5
f 14/45/6 16/46/6 12/47/6 10/48/6
f 17/49/4 18/50/4 20/51/4 19/52/4
f 21/53/2 22/54/2 24/55/2 23/56/2
f 26/1/1 28/2/1 27/3/1 25/4/1
f 28/5/2 32/6/2 31/7/2 27/8/2
f 32/9/3 30/10/3 29/11/3 31/12/3
f 30/13/4 26/14/4 25/15/4 29/16/4
f 25/17/5 27/18/5 31/19/5 29/20/5
f 30/21/6 32/22/6 28/23/6 26/24/6
f 34/25/1 36/26/1 35/27/1 33/28/1
f 36/29/2 40/30/2 39/31/2 35/32/2
f 40/33/3 38/34/3 37/35/3 39/36/3
f 38/37/4 34/38/4 33/39/4 37/40/4
f 33/41/5 35/42/5 39/43/5 37/44/5
f 38/45/6 40/46/6 36/47/6 34/48/6
f 41/49/4 42/50/4 44/51/4 43/52/4
f 45/53/2 46/54/2 48/55/2 47/56/2
f 50/1/4 52/2/4 51/3/4 49/4/4
f 52/5/1 56/6/1 55/7/1 51/8/1
f 56/9/2 54/10/2 53/11/2 55/12/2
f 54/13/3 50/14/3 49/15/3 53/16/3
f 49/17/5 51/18/5 55/19/5 53/20/5
f 54/21/6 56/22/6 52/23/6 50/24/6
f 58/25/4 60/26/4 59/27/4 57/28/4
f 60/29/1 64/30/1 63/31/1 59/32/1
f 64/33/2 62/34/2 61/35/2 63/36/2
f 62/37/3 58/38/3 57/39/3 61/40/3
f 57/41/5 59/42/5 63/43/5 61/44/5
f 62/45/6 64/46/6 60/47/6 58/48/6
f 65/49/3 66/50/3 68/51/3 67/52/3
f 69/53/1 70/54/1 72/55/1 71/56/1
f 74/1/4 76/2/4 75/3/4 73/4/4
f 76/5/1 80/6/1 79/7/1 75/8/1
f 80/9/2 78/10/2 77/11/2 79/12/2
f 78/13/3 74/14/3 73/15/3 77/16/3
f 73/17/5 75/18/5 79/19/5 77/20/5
f 78/21/6 80/22/6 76/23/6 74/24/6
f 82/25/4 84/26/4 83/27/4 81/28/4
f 84/29/1 88/30/1 87/31/1 83/32/1
f 88/33/2 86/34/2 85/35/2 87/36/2
f 86/37/3 82/38/3 81/39/3 85/40/3
f 81/41/5 83/42/5 87/43/5 85/44/5
f 86/45/6 88/46/6 84/47/6 82/48/6
f 89/49/3 90/50/3 92/51/3 91/52/3
f 93/53/1 94/54/1 96/55/1 95/56/1
