# Blender v2.79 (sub 0) OBJ File: ''
# www.blender.org
o Cube_Cube.002
v -0.648344 -0.006116 2.939431
v -0.648344 1.993884 2.939431
v -0.236751 -0.006116 -0.007114
v -0.236751 1.993884 -0.007114
v 1.517016 -0.006116 2.091797
v 1.517016 1.993884 2.091797
v 1.546075 -0.006116 -1.039994
v 1.546075 1.993884 -1.039994
v -2.525832 -0.006116 1.877621
v -2.525832 1.993884 1.765342
vn -0.6240 -0.0219 -0.7811
vn -0.5013 0.0000 -0.8653
vn 1.0000 0.0000 0.0093
vn 0.3645 0.0000 0.9312
vn 0.0000 -1.0000 0.0000
vn 0.0000 1.0000 0.0000
vn -0.5115 0.0241 0.8590
s off
f 9//1 10//1 4//1 3//1
f 3//2 4//2 8//2 7//2
f 7//3 8//3 6//3 5//3
f 5//4 6//4 2//4 1//4
f 3//5 7//5 5//5 1//5 9//5
f 8//6 4//6 10//6 2//6 6//6
f 1//7 2//7 10//7 9//7
