# Blender v2.76 (sub 0) OBJ File: ''
# www.blender.org
mtllib tree.mtl
o floor_Plane
v -1.008178 -0.000000 1.008178
v 1.008178 -0.000000 1.008178
v 1.008178 0.000000 -1.008178
v -1.008178 0.000000 -1.008178
vt 0.000000 1.000000
vt 0.000000 0.000000
vt 1.000000 0.000000
vt 1.000000 1.000000
vn 0.000000 1.000000 0.000000
usemtl floor
s 1
f 1/1/1 2/2/1 3/3/1 4/4/1
o Cylinder.004
v 1.387545 -0.004127 -0.816304
v 1.387545 2.552591 -0.816304
v 1.494549 -0.004127 -0.754526
v 1.494549 2.552591 -0.754526
v 1.494549 -0.004127 -0.630969
v 1.494549 2.552591 -0.630969
v 1.387545 -0.004127 -0.569190
v 1.387545 2.552591 -0.569190
v 1.280541 -0.004127 -0.630969
v 1.280541 2.552591 -0.630969
v 1.280541 -0.004127 -0.754526
v 1.280541 2.552591 -0.754526
v 1.387545 2.037403 -0.692747
v 2.180278 2.643001 -0.116799
v 1.084754 2.643001 0.239164
v 0.407666 2.643001 -0.692747
v 1.084754 2.643001 -1.624658
v 2.180278 2.643001 -1.268695
v 1.690336 3.622886 0.239164
v 0.594812 3.622886 -0.116799
v 0.594812 3.622886 -1.268695
v 1.690336 3.622886 -1.624658
v 2.367424 3.622886 -0.692747
v 1.387545 4.228484 -0.692747
vn 0.000000 1.000000 0.000000
vn 0.187600 -0.794700 0.577400
vn 0.607100 -0.794700 0.000000
vn -0.491100 -0.794700 0.356800
vn -0.491100 -0.794700 -0.356800
vn 0.187600 -0.794700 -0.577400
vn 0.982200 -0.187600 0.000000
vn 0.303500 -0.187600 0.934200
vn -0.794600 -0.187600 0.577400
vn -0.794600 -0.187600 -0.577400
vn 0.303500 -0.187600 -0.934200
vn 0.794600 0.187600 0.577400
vn -0.303500 0.187600 0.934200
vn -0.982200 0.187600 0.000000
vn -0.303500 0.187600 -0.934200
vn 0.794600 0.187600 -0.577400
vn 0.491100 0.794700 0.356800
vn -0.187600 0.794700 0.577400
vn -0.607100 0.794700 0.000000
vn -0.187600 0.794700 -0.577400
vn 0.491100 0.794700 -0.356800
vn 0.500000 0.000000 -0.866000
vn 1.000000 0.000000 0.000000
vn 0.500000 0.000000 0.866000
vn -0.500000 0.000000 0.866000
vn -0.500000 0.000000 -0.866000
vn -1.000000 0.000000 0.000000
vn 0.000000 -1.000000 0.000000
usemtl Material.001
s off
f 8//2 6//2 16//2 14//2 12//2 10//2
f 17//3 18//3 19//3
f 18//4 17//4 22//4
f 17//5 19//5 20//5
f 17//6 20//6 21//6
f 17//7 21//7 22//7
f 18//8 22//8 27//8
f 19//9 18//9 23//9
f 20//10 19//10 24//10
f 21//11 20//11 25//11
f 22//12 21//12 26//12
f 18//13 27//13 23//13
f 19//14 23//14 24//14
f 20//15 24//15 25//15
f 21//16 25//16 26//16
f 22//17 26//17 27//17
f 23//18 27//18 28//18
f 24//19 23//19 28//19
f 25//20 24//20 28//20
f 26//21 25//21 28//21
f 27//22 26//22 28//22
usemtl Material.002
f 5//23 6//23 8//23 7//23
f 7//24 8//24 10//24 9//24
f 9//25 10//25 12//25 11//25
f 11//26 12//26 14//26 13//26
f 15//27 16//27 6//27 5//27
f 13//28 14//28 16//28 15//28
f 5//29 7//29 9//29 11//29 13//29 15//29
o Cylinder.003
v 1.319674 0.033342 1.653376
v 1.319674 1.814721 1.653376
v 1.394229 0.033342 1.696420
v 1.394229 1.814721 1.696420
v 1.394229 0.033342 1.782508
v 1.394229 1.814721 1.782508
v 1.319674 0.033342 1.825552
v 1.319674 1.814721 1.825552
v 1.245120 0.033342 1.782508
v 1.245120 1.814721 1.782508
v 1.245120 0.033342 1.696420
v 1.245120 1.814721 1.696420
v 1.319674 1.455767 1.739464
v 1.872007 1.877714 2.140753
v 1.108707 1.877714 2.388768
v 0.636949 1.877714 1.739464
v 1.108707 1.877714 1.090161
v 1.872007 1.877714 1.338176
v 1.530642 2.560443 2.388768
v 0.767342 2.560443 2.140753
v 0.767342 2.560443 1.338176
v 1.530642 2.560443 1.090161
v 2.002400 2.560443 1.739464
v 1.319674 2.982390 1.739464
vn 0.000000 1.000000 0.000000
vn 0.187600 -0.794700 0.577400
vn 0.607100 -0.794700 0.000000
vn -0.491100 -0.794700 0.356800
vn -0.491100 -0.794700 -0.356800
vn 0.187600 -0.794700 -0.577400
vn 0.982200 -0.187600 0.000000
vn 0.303500 -0.187600 0.934200
vn -0.794600 -0.187600 0.577400
vn -0.794600 -0.187600 -0.577400
vn 0.303500 -0.187600 -0.934200
vn 0.794600 0.187600 0.577400
vn -0.303500 0.187600 0.934200
vn -0.982200 0.187600 0.000000
vn -0.303500 0.187600 -0.934200
vn 0.794600 0.187600 -0.577400
vn 0.491100 0.794700 0.356800
vn -0.187600 0.794700 0.577400
vn -0.607100 0.794700 0.000000
vn -0.187600 0.794700 -0.577400
vn 0.491100 0.794700 -0.356800
vn 0.500000 0.000000 -0.866000
vn 1.000000 0.000000 0.000000
vn 0.500000 0.000000 0.866000
vn -0.500000 0.000000 0.866000
vn -0.500000 0.000000 -0.866000
vn -1.000000 0.000000 0.000000
vn 0.000000 -1.000000 0.000000
usemtl Material.001
s off
f 32//30 30//30 40//30 38//30 36//30 34//30
f 41//31 42//31 43//31
f 42//32 41//32 46//32
f 41//33 43//33 44//33
f 41//34 44//34 45//34
f 41//35 45//35 46//35
f 42//36 46//36 51//36
f 43//37 42//37 47//37
f 44//38 43//38 48//38
f 45//39 44//39 49//39
f 46//40 45//40 50//40
f 42//41 51//41 47//41
f 43//42 47//42 48//42
f 44//43 48//43 49//43
f 45//44 49//44 50//44
f 46//45 50//45 51//45
f 47//46 51//46 52//46
f 48//47 47//47 52//47
f 49//48 48//48 52//48
f 50//49 49//49 52//49
f 51//50 50//50 52//50
usemtl Material.002
f 29//51 30//51 32//51 31//51
f 31//52 32//52 34//52 33//52
f 33//53 34//53 36//53 35//53
f 35//54 36//54 38//54 37//54
f 39//55 40//55 30//55 29//55
f 37//56 38//56 40//56 39//56
f 29//57 31//57 33//57 35//57 37//57 39//57
o Cylinder.002
v -0.578723 0.056419 2.508216
v -0.578723 1.360280 2.508216
v -0.543655 0.056419 2.560567
v -0.543655 1.360280 2.560567
v -0.571458 0.056419 2.617112
v -0.571458 1.360280 2.617112
v -0.634330 0.056419 2.621307
v -0.634330 1.360280 2.621307
v -0.669398 0.056419 2.568956
v -0.669398 1.360280 2.568956
v -0.641595 0.056419 2.512411
v -0.641595 1.360280 2.512411
v -0.606526 1.097547 2.564762
v -0.373337 1.406387 3.006724
v -0.954798 1.406387 2.923111
v -1.054963 1.406387 2.344267
v -0.535397 1.406387 2.070143
v -0.114135 1.406387 2.479564
v -0.677656 1.906103 3.059381
v -1.098918 1.906103 2.649959
v -0.839716 1.906103 2.122800
v -0.258255 1.906103 2.206412
v -0.158090 1.906103 2.785256
v -0.606526 2.214942 2.564762
vn 0.000000 1.000000 0.000000
vn -0.086400 -0.794700 0.600900
vn 0.544800 -0.794700 0.267900
vn -0.598200 -0.794700 0.103500
vn -0.283300 -0.794700 -0.536900
vn 0.423100 -0.794700 -0.435300
vn 0.881500 -0.187600 0.433400
vn -0.139800 -0.187600 0.972200
vn -0.967900 -0.187600 0.167500
vn -0.458400 -0.187600 -0.868700
vn 0.684600 -0.187600 -0.704400
vn 0.458400 0.187600 0.868700
vn -0.684600 0.187600 0.704400
vn -0.881500 0.187600 -0.433400
vn 0.139800 0.187600 -0.972200
vn 0.967900 0.187600 -0.167500
vn 0.283300 0.794700 0.536900
vn -0.423100 0.794700 0.435300
vn -0.544800 0.794700 -0.267900
vn 0.086400 0.794700 -0.600900
vn 0.598200 0.794700 -0.103500
vn 0.830800 0.000000 -0.556500
vn 0.897400 0.000000 0.441200
vn 0.066600 0.000000 0.997800
vn -0.830800 0.000000 0.556500
vn -0.066600 0.000000 -0.997800
vn -0.897400 0.000000 -0.441200
vn 0.000000 -1.000000 -0.000000
usemtl Material.001
s off
f 56//58 54//58 64//58 62//58 60//58 58//58
f 65//59 66//59 67//59
f 66//60 65//60 70//60
f 65//61 67//61 68//61
f 65//62 68//62 69//62
f 65//63 69//63 70//63
f 66//64 70//64 75//64
f 67//65 66//65 71//65
f 68//66 67//66 72//66
f 69//67 68//67 73//67
f 70//68 69//68 74//68
f 66//69 75//69 71//69
f 67//70 71//70 72//70
f 68//71 72//71 73//71
f 69//72 73//72 74//72
f 70//73 74//73 75//73
f 71//74 75//74 76//74
f 72//75 71//75 76//75
f 73//76 72//76 76//76
f 74//77 73//77 76//77
f 75//78 74//78 76//78
usemtl Material.002
f 53//79 54//79 56//79 55//79
f 55//80 56//80 58//80 57//80
f 57//81 58//81 60//81 59//81
f 59//82 60//82 62//82 61//82
f 63//83 64//83 54//83 53//83
f 61//84 62//84 64//84 63//84
f 53//85 55//85 57//85 59//85 61//85 63//85
o Cylinder.001
v -2.195074 0.023874 1.738371
v -2.195074 2.001170 1.738371
v -2.181347 0.023874 1.832935
v -2.181347 2.001170 1.832935
v -2.256379 0.023874 1.892106
v -2.256379 2.001170 1.892106
v -2.345138 0.023874 1.856712
v -2.345138 2.001170 1.856712
v -2.358865 0.023874 1.762147
v -2.358865 2.001170 1.762147
v -2.283833 0.023874 1.702976
v -2.283833 2.001170 1.702976
v -2.270106 1.602738 1.797541
v -2.240225 2.071091 2.554755
v -2.981025 2.071091 2.059951
v -2.739361 2.071091 1.202497
v -1.849195 2.071091 1.167384
v -1.540721 2.071091 2.003123
v -2.691017 2.828907 2.427699
v -2.999491 2.828907 1.591959
v -2.299987 2.828907 1.040327
v -1.559187 2.828907 1.535131
v -1.800851 2.828907 2.392586
v -2.270106 3.297260 1.797541
vn 0.000000 1.000000 0.000000
vn -0.337200 -0.794700 0.504800
vn 0.375900 -0.794700 0.476700
vn -0.584300 -0.794700 -0.164700
vn -0.023900 -0.794700 -0.606600
vn 0.569500 -0.794700 -0.210200
vn 0.608200 -0.187600 0.771300
vn -0.545600 -0.187600 0.816800
vn -0.945400 -0.187600 -0.266500
vn -0.038700 -0.187600 -0.981500
vn 0.921500 -0.187600 -0.340100
vn 0.038700 0.187600 0.981500
vn -0.921500 0.187600 0.340100
vn -0.608200 0.187600 -0.771300
vn 0.545600 0.187600 -0.816800
vn 0.945400 0.187600 0.266500
vn 0.023900 0.794700 0.606600
vn -0.569500 0.794700 0.210200
vn -0.375900 0.794700 -0.476700
vn 0.337200 0.794700 -0.504800
vn 0.584300 0.794700 0.164700
vn 0.989600 0.000000 -0.143700
vn 0.619200 0.000000 0.785200
vn -0.370400 0.000000 0.928900
vn -0.989600 0.000000 0.143700
vn 0.370400 0.000000 -0.928900
vn -0.619200 0.000000 -0.785200
vn 0.000000 -1.000000 -0.000000
usemtl Material.001
s off
f 80//86 78//86 88//86 86//86 84//86 82//86
f 89//87 90//87 91//87
f 90//88 89//88 94//88
f 89//89 91//89 92//89
f 89//90 92//90 93//90
f 89//91 93//91 94//91
f 90//92 94//92 99//92
f 91//93 90//93 95//93
f 92//94 91//94 96//94
f 93//95 92//95 97//95
f 94//96 93//96 98//96
f 90//97 99//97 95//97
f 91//98 95//98 96//98
f 92//99 96//99 97//99
f 93//100 97//100 98//100
f 94//101 98//101 99//101
f 95//102 99//102 100//102
f 96//103 95//103 100//103
f 97//104 96//104 100//104
f 98//105 97//105 100//105
f 99//106 98//106 100//106
usemtl Material.002
f 77//107 78//107 80//107 79//107
f 79//108 80//108 82//108 81//108
f 81//109 82//109 84//109 83//109
f 83//110 84//110 86//110 85//110
f 87//111 88//111 78//111 77//111
f 85//112 86//112 88//112 87//112
f 77//113 79//113 81//113 83//113 85//113 87//113
o Cylinder
v -0.013261 0.023874 0.327832
v -0.013261 2.001170 0.327832
v 0.069493 0.023874 0.375610
v 0.069493 2.001170 0.375610
v 0.069493 0.023874 0.471166
v 0.069493 2.001170 0.471166
v -0.013261 0.023874 0.518944
v -0.013261 2.001170 0.518944
v -0.096014 0.023874 0.471166
v -0.096014 2.001170 0.471166
v -0.096014 0.023874 0.375610
v -0.096014 2.001170 0.375610
v -0.013261 1.602738 0.423388
v 0.599818 2.071091 0.868810
v -0.247431 2.071091 1.144102
v -0.771072 2.071091 0.423388
v -0.247431 2.071091 -0.297326
v 0.599818 2.071091 -0.022034
v 0.220910 2.828907 1.144102
v -0.626339 2.828907 0.868810
v -0.626339 2.828907 -0.022034
v 0.220910 2.828907 -0.297326
v 0.744551 2.828907 0.423388
v -0.013261 3.297260 0.423388
vn 0.000000 1.000000 -0.000000
vn 0.187600 -0.794700 0.577400
vn 0.607100 -0.794700 0.000000
vn -0.491100 -0.794700 0.356800
vn -0.491100 -0.794700 -0.356800
vn 0.187600 -0.794700 -0.577400
vn 0.982200 -0.187600 0.000000
vn 0.303500 -0.187600 0.934200
vn -0.794600 -0.187600 0.577400
vn -0.794600 -0.187600 -0.577400
vn 0.303500 -0.187600 -0.934200
vn 0.794600 0.187600 0.577400
vn -0.303500 0.187600 0.934200
vn -0.982200 0.187600 0.000000
vn -0.303500 0.187600 -0.934200
vn 0.794600 0.187600 -0.577400
vn 0.491100 0.794700 0.356800
vn -0.187600 0.794700 0.577400
vn -0.607100 0.794700 0.000000
vn -0.187600 0.794700 -0.577400
vn 0.491100 0.794700 -0.356800
vn 0.500000 0.000000 -0.866000
vn 1.000000 0.000000 0.000000
vn 0.500000 0.000000 0.866000
vn -0.500000 0.000000 0.866000
vn -0.500000 0.000000 -0.866000
vn -1.000000 0.000000 0.000000
vn 0.000000 -1.000000 0.000000
usemtl Material.001
s off
f 104//114 102//114 112//114 110//114 108//114 106//114
f 113//115 114//115 115//115
f 114//116 113//116 118//116
f 113//117 115//117 116//117
f 113//118 116//118 117//118
f 113//119 117//119 118//119
f 114//120 118//120 123//120
f 115//121 114//121 119//121
f 116//122 115//122 120//122
f 117//123 116//123 121//123
f 118//124 117//124 122//124
f 114//125 123//125 119//125
f 115//126 119//126 120//126
f 116//127 120//127 121//127
f 117//128 121//128 122//128
f 118//129 122//129 123//129
f 119//130 123//130 124//130
f 120//131 119//131 124//131
f 121//132 120//132 124//132
f 122//133 121//133 124//133
f 123//134 122//134 124//134
usemtl Material.002
f 101//135 102//135 104//135 103//135
f 103//136 104//136 106//136 105//136
f 105//137 106//137 108//137 107//137
f 107//138 108//138 110//138 109//138
f 111//139 112//139 102//139 101//139
f 109//140 110//140 112//140 111//140
f 101//141 103//141 105//141 107//141 109//141 111//141
